# xmcd
#
# Track frame offsets:
#	150
#	16530
#	47809
#	74611
#	114145
#	139974
#	159727
#	191539
#
# Disc length: 3024 seconds
#
# Revision: 1
# Processed by: cddbd v1.5.2PL0 Copyright (c) Steve Scherf et al.
# Submitted via: audiograbber 1.83.01
#
DISCID=670bce08
DTITLE=Gerry Mulligan - 1957 - 2
DYEAR=1900
DGENRE=Jazz
TTITLE0=Anything Goes
TTITLE1=Too Close For Comfort
TTITLE2=That Old Feeling
TTITLE3=This Can't Be Love
TTITLE4=A Ballad
TTITLE5=Four And One Moore
TTITLE6=Crazy Day
TTITLE7=Turnstile
EXTD=
EXTT0=
EXTT1=
EXTT2=
EXTT3=
EXTT4=
EXTT5=
EXTT6=
EXTT7=
PLAYORDER=
